<?xml version="1.0" encoding="UTF-8"?>
<svg width="28px" height="28px" viewBox="0 0 28 28" version="1.1" xmlns="http://www.w3.org/2000/svg" xmlns:xlink="http://www.w3.org/1999/xlink">
    <!-- Generator: Sketch 43.2 (39069) - http://www.bohemiancoding.com/sketch -->
    <title>Group 6</title>
    <desc>Created with Sketch.</desc>
    <defs></defs>
    <g id="Page-1" stroke="none" stroke-width="1" fill="none" fill-rule="evenodd">
        <g id="Mobile-Portrait" transform="translate(-263.000000, -5386.000000)">
            <g id="Group-5" transform="translate(74.000000, 5384.000000)">
                <g id="Group-4" transform="translate(189.000000, 2.000000)">
                    <g id="Group-6">
                        <circle id="Oval" fill="#333333" cx="14" cy="14" r="14"></circle>
                        <path d="M18.801981,7.07665449 L4.46581495,12.3919621 C4.46581495,12.3919621 3.96606586,12.6445084 4.0472649,13.0270621 C4.12846395,13.4096158 4.5668294,13.4964893 4.5668294,13.4964893 L7.9484361,14.5606655 L9.48870356,18.8920532 C9.48870356,18.8920532 9.65321044,19.091564 9.94303056,19.1220758 C10.2328507,19.1525877 10.5576475,18.9816728 10.5576475,18.9816728 L12.5051042,17.1177203 L16.1633118,19.8267047 C16.1633118,19.8267047 16.6175844,19.9128524 16.9226535,19.8267047 C17.2277225,19.740557 17.4703531,19.4201842 17.4703531,19.4201842 L19.9755347,7.60846391 C19.9755347,7.60846391 19.8127298,7.21089601 19.571565,7.07665449 C19.3304002,6.94241296 18.801981,7.07665449 18.801981,7.07665449 Z" id="Path-3" fill="#D8D8D8"></path>
                        <path d="M17.0180785,9.26395883 L8.53358817,14.3294207 L9.85139161,18.1909454 L10.1803269,15.4763808 L17.1567357,9.40034123 C17.1567357,9.40034123 17.1531402,9.30873422 17.1293293,9.28531394 C17.1055184,9.26189366 17.0180785,9.26395883 17.0180785,9.26395883 Z" id="Path" fill="#333333"></path>
                    </g>
                </g>
            </g>
        </g>
    </g>
</svg>