<svg width="25" height="26" viewBox="0 0 25 26" version="1.1" xmlns="http://www.w3.org/2000/svg" xmlns:xlink="http://www.w3.org/1999/xlink">
<title>Parenting</title>
<desc>Created using Figma</desc>
<g id="Canvas" transform="translate(1290 -203)">
<g id="Parenting">
<g id="Parent">
<g id="Union">
<mask id="mask0_outline_ins">
<use xlink:href="#path0_fill" fill="white" transform="translate(-1287 207.5)"/>
</mask>
<g mask="url(#mask0_outline_ins)">
<use xlink:href="#path1_stroke_2x" transform="translate(-1287 207.5)" fill="#FFFFFF"/>
</g>
</g>
<g id="Union">
<mask id="mask1_outline_ins">
<use xlink:href="#path2_fill" fill="white" transform="translate(-1281.72 211.735)"/>
</mask>
<g mask="url(#mask1_outline_ins)">
<use xlink:href="#path3_stroke_2x" transform="translate(-1281.72 211.735)" fill="#FFFFFF"/>
</g>
</g>
</g>
</g>
</g>
<defs>
<path id="path0_fill" d="M 0 5.29412C 0 2.37027 2.36289 0 5.27778 0C 7.00427 0 8.53709 0.831536 9.5 2.11713C 10.4629 0.831536 11.9957 0 13.7222 0C 16.6371 0 19 2.37027 19 5.29412C 19 9.59606 12.079 14.8634 9.5 18C 6.92098 14.8634 0 9.59606 0 5.29412Z"/>
<path id="path1_stroke_2x" d="M 9.5 2.11713L 8.69962 2.71662L 9.5 3.78522L 10.3004 2.71662L 9.5 2.11713ZM 9.5 18L 8.72758 18.6351L 9.5 19.5745L 10.2724 18.6351L 9.5 18ZM 1 5.29412C 1 2.91963 2.91809 1 5.27778 1L 5.27778 -1C 1.80768 -1 -1 1.82091 -1 5.29412L 1 5.29412ZM 5.27778 1C 6.67522 1 7.91694 1.67166 8.69962 2.71662L 10.3004 1.51764C 9.15724 -0.00858994 7.33331 -1 5.27778 -1L 5.27778 1ZM 10.3004 2.71662C 11.0831 1.67166 12.3248 1 13.7222 1L 13.7222 -1C 11.6667 -1 9.84276 -0.00858994 8.69962 1.51764L 10.3004 2.71662ZM 13.7222 1C 16.0819 1 18 2.91963 18 5.29412L 20 5.29412C 20 1.82091 17.1923 -1 13.7222 -1L 13.7222 1ZM 10.2724 17.3649C 8.93025 15.7375 6.5369 13.618 4.52114 11.4096C 3.51349 10.3073 2.62911 9.22616 1.97904 8.13846C 1.3337 7.06363 1 6.11153 1 5.29412L -1 5.29412C -1 6.62768 -0.468578 7.94723 0.264362 9.16797C 0.992572 10.3758 1.99963 11.6142 3.0446 12.7586C 5.13408 15.0435 7.49074 17.1259 8.72758 18.6351L 10.2724 17.3649ZM 18 5.29412C 18 6.11153 17.6663 7.06363 17.021 8.13846C 16.3709 9.22616 15.4865 10.3073 14.4789 11.4096C 12.4631 13.618 10.0698 15.7375 8.72758 17.3649L 10.2724 18.6351C 11.5093 17.1259 13.8659 15.0435 15.9554 12.7586C 17.0004 11.6142 18.0074 10.3758 18.7356 9.16797C 19.4686 7.94723 20 6.62768 20 5.29412L 18 5.29412Z"/>
<path id="path2_fill" d="M 0 2.49135C 0 1.11542 1.05017 0 2.34568 0C 3.11301 0 3.79426 0.391311 4.22222 0.996297C 4.65018 0.391311 5.33144 0 6.09877 0C 7.39427 0 8.44444 1.11542 8.44444 2.49135C 8.44444 4.51014 5.39641 6.95856 4.22222 8.47059C 3.04804 6.95856 0 4.51014 0 2.49135Z"/>
<path id="path3_stroke_2x" d="M 4.22222 0.996297L 3.40583 1.5738L 4.22222 2.72789L 5.03861 1.5738L 4.22222 0.996297ZM 4.22222 8.47059L 3.4324 9.08393L 4.22222 10.101L 5.01204 9.08393L 4.22222 8.47059ZM 1 2.49135C 1 1.61008 1.65837 1 2.34568 1L 2.34568 -1C 0.441974 -1 -1 0.620759 -1 2.49135L 1 2.49135ZM 2.34568 1C 2.75971 1 3.14809 1.20944 3.40583 1.5738L 5.03861 0.418792C 4.44044 -0.426814 3.4663 -1 2.34568 -1L 2.34568 1ZM 5.03861 1.5738C 5.29636 1.20944 5.68473 1 6.09877 1L 6.09877 -1C 4.97814 -1 4.00401 -0.426814 3.40583 0.418792L 5.03861 1.5738ZM 6.09877 1C 6.78607 1 7.44444 1.61008 7.44444 2.49135L 9.44444 2.49135C 9.44444 0.620759 8.00247 -1 6.09877 -1L 6.09877 1ZM 5.01204 7.85725C 4.37439 7.04115 3.30124 6.03222 2.42798 5.01781C 1.49677 3.93835 1 3.08373 1 2.49135L -1 2.49135C -1 3.91776 0.0272486 5.29674 0.913606 6.3242C 1.85791 7.4167 2.89587 8.388 3.4324 9.08393L 5.01204 7.85725ZM 7.44444 2.49135C 7.44444 3.08373 6.94767 3.93835 6.01647 5.01781C 5.1432 6.03222 4.07006 7.04115 3.4324 7.85725L 5.01204 9.08393C 5.54857 8.388 6.58654 7.4167 7.53084 6.3242C 8.4172 5.29674 9.44444 3.91776 9.44444 2.49135L 7.44444 2.49135Z"/>
</defs>
</svg>
